<?xml version="1.0" encoding="utf-8"?>
<!-- Generator: Adobe Illustrator 26.0.1, SVG Export Plug-In . SVG Version: 6.00 Build 0)  -->
<svg version="1.1" id="Layer_1" xmlns="http://www.w3.org/2000/svg" xmlns:xlink="http://www.w3.org/1999/xlink" x="0px" y="0px"
	 viewBox="0 0 463.86 191.95" style="enable-background:new 0 0 463.86 191.95;" xml:space="preserve">
<style type="text/css">
	.st0{fill:#871748;}
	.st1{fill:#333333;}
	.st2{fill:#FFFFFF;}
</style>
<g>
	<path class="st0" d="M208.41,5.28c-1.91-2.09-4.85-3.17-7.6-2.87c-2.76,0.28-5.2,1.68-6.89,3.58c-1.72,1.91-2.59,4.44-2.44,6.89
		c0.11,2.46,1.22,4.78,2.97,6.36c1.75,1.61,4.13,2.34,6.36,2.16c2.24-0.16,4.33-1.04,6.01-2.51c1.66-1.47,3.08-3.45,3.65-6.01
		c0.27-1.27,0.27-2.64-0.07-3.97C210.06,7.58,209.36,6.31,208.41,5.28z M208.76,4.92c2.13,2,3.82,4.71,4.38,7.95
		c0.27,1.61,0.21,3.34-0.25,5c-0.46,1.66-1.35,3.24-2.54,4.54c-2.38,2.62-6.02,4.11-9.55,3.93c-3.54-0.16-6.88-1.8-9.19-4.28
		c-2.34-2.48-3.6-5.88-3.47-9.19c0.12-3.32,1.63-6.5,4-8.66c2.37-2.19,5.66-3.16,8.66-2.86C203.83,1.63,206.6,2.92,208.76,4.92z"/>
</g>
<g>
	<g>
		<path class="st1" d="M44.46,40.09c3.74,1.31,6.63,3.15,8.65,5.53c2.02,2.38,3.03,5.14,3.03,8.29c0,3.09-0.95,5.85-2.85,8.29
			c-1.9,2.44-4.46,4.13-7.67,5.08c3.74,0.83,6.74,2.69,9,5.57c2.26,2.88,3.39,6.28,3.39,10.21c0,3.51-1.04,6.6-3.12,9.27
			c-2.08,2.67-5.01,4.72-8.78,6.15c-3.78,1.43-8.19,2.14-13.24,2.14H-0.29V38.13h31.64C36.35,38.13,40.72,38.78,44.46,40.09z
			 M33.63,60.95c0.86-0.83,1.29-1.93,1.29-3.3c0-1.31-0.43-2.36-1.29-3.17c-0.86-0.8-2.01-1.2-3.43-1.2H20.3v8.91h9.89
			C31.62,62.2,32.77,61.78,33.63,60.95z M34.79,84.08c1.16-0.92,1.74-2.12,1.74-3.61c0-1.37-0.58-2.46-1.74-3.3
			c-1.16-0.83-2.69-1.25-4.59-1.25H20.3v9.54h9.89C32.1,85.46,33.63,85,34.79,84.08z"/>
		<path class="st1" d="M86.71,81.99c1.78,1.9,3.92,2.85,6.42,2.85c2.44,0,4.46-0.94,6.06-2.81c1.6-1.87,2.41-4.32,2.41-7.35V38.13
			h20.68v36.55c0,5.47-1.2,10.27-3.61,14.4c-2.41,4.13-5.81,7.32-10.21,9.58c-4.4,2.26-9.54,3.39-15.42,3.39
			c-5.88,0-11.07-1.13-15.55-3.39C73,96.4,69.52,93.2,67.06,89.07c-2.47-4.13-3.7-8.93-3.7-14.4V38.13h20.68v36.55
			C84.04,77.65,84.93,80.08,86.71,81.99z"/>
		<path class="st1" d="M165.78,54.62c-4.16-1.48-7.55-2.23-10.16-2.23c-2.56,0-3.83,0.92-3.83,2.76c0,1.43,0.82,2.53,2.45,3.3
			c1.63,0.77,4.23,1.64,7.8,2.58c4.46,1.25,8.16,2.5,11.1,3.74c2.94,1.25,5.51,3.22,7.71,5.93c2.2,2.71,3.3,6.25,3.3,10.65
			c0,4.52-1.17,8.31-3.52,11.37c-2.35,3.06-5.51,5.33-9.49,6.82c-3.98,1.48-8.41,2.23-13.28,2.23c-5.53,0-11.1-0.91-16.71-2.72
			c-5.62-1.81-10.47-4.29-14.58-7.44l7.67-15.6c3.15,2.73,7.1,5.07,11.86,7c4.75,1.93,8.74,2.9,11.94,2.9
			c1.54,0,2.76-0.28,3.66-0.85c0.89-0.56,1.34-1.44,1.34-2.63c0-1.43-0.85-2.54-2.54-3.34c-1.69-0.8-4.35-1.65-7.98-2.54
			c-4.4-1.13-8.07-2.3-11.01-3.52c-2.94-1.22-5.48-3.1-7.62-5.66c-2.14-2.55-3.21-5.97-3.21-10.25c0-4.16,1.1-7.8,3.3-10.92
			c2.2-3.12,5.32-5.51,9.36-7.18c4.04-1.66,8.74-2.5,14.08-2.5c4.87,0,9.73,0.68,14.57,2.05c4.84,1.37,9.05,3.18,12.61,5.44
			l-7.49,15.78C173.71,57.83,169.94,56.11,165.78,54.62z"/>
		<path class="st1" d="M189.49,38.13h20.68v62.49h-20.68V38.13z"/>
		<path class="st1" d="M261.07,38.13h18.72v62.49h-17.29l-24.6-31.91v31.91h-18.81V38.13h17.29l24.69,32.09V38.13z"/>
		<path class="st1" d="M288.7,38.13h52.86v15.69h-32.18v7.67h29.24v15.69h-29.24v7.75h32.98v15.69H288.7V38.13z"/>
		<path class="st1" d="M385.68,54.62c-4.16-1.48-7.55-2.23-10.16-2.23c-2.56,0-3.83,0.92-3.83,2.76c0,1.43,0.82,2.53,2.45,3.3
			c1.63,0.77,4.23,1.64,7.8,2.58c4.46,1.25,8.16,2.5,11.1,3.74c2.94,1.25,5.51,3.22,7.71,5.93c2.2,2.71,3.3,6.25,3.3,10.65
			c0,4.52-1.17,8.31-3.52,11.37c-2.35,3.06-5.51,5.33-9.49,6.82c-3.98,1.48-8.41,2.23-13.28,2.23c-5.53,0-11.1-0.91-16.71-2.72
			c-5.62-1.81-10.47-4.29-14.57-7.44l7.67-15.6c3.15,2.73,7.1,5.07,11.86,7c4.75,1.93,8.74,2.9,11.95,2.9
			c1.54,0,2.76-0.28,3.65-0.85c0.89-0.56,1.34-1.44,1.34-2.63c0-1.43-0.85-2.54-2.54-3.34c-1.69-0.8-4.35-1.65-7.98-2.54
			c-4.4-1.13-8.07-2.3-11.01-3.52c-2.94-1.22-5.48-3.1-7.62-5.66c-2.14-2.55-3.21-5.97-3.21-10.25c0-4.16,1.1-7.8,3.3-10.92
			c2.2-3.12,5.32-5.51,9.36-7.18c4.04-1.66,8.74-2.5,14.08-2.5c4.87,0,9.73,0.68,14.57,2.05c4.84,1.37,9.05,3.18,12.61,5.44
			L397,59.79C393.62,57.83,389.84,56.11,385.68,54.62z"/>
		<path class="st1" d="M444.87,54.62c-4.16-1.48-7.55-2.23-10.16-2.23c-2.56,0-3.83,0.92-3.83,2.76c0,1.43,0.82,2.53,2.45,3.3
			c1.63,0.77,4.23,1.64,7.8,2.58c4.46,1.25,8.16,2.5,11.1,3.74c2.94,1.25,5.51,3.22,7.71,5.93c2.2,2.71,3.3,6.25,3.3,10.65
			c0,4.52-1.17,8.31-3.52,11.37c-2.35,3.06-5.51,5.33-9.49,6.82c-3.98,1.48-8.41,2.23-13.28,2.23c-5.53,0-11.1-0.91-16.71-2.72
			c-5.62-1.81-10.47-4.29-14.57-7.44l7.67-15.6c3.15,2.73,7.1,5.07,11.86,7c4.75,1.93,8.74,2.9,11.95,2.9
			c1.54,0,2.76-0.28,3.65-0.85c0.89-0.56,1.34-1.44,1.34-2.63c0-1.43-0.85-2.54-2.54-3.34c-1.69-0.8-4.35-1.65-7.98-2.54
			c-4.4-1.13-8.07-2.3-11.01-3.52c-2.94-1.22-5.48-3.1-7.62-5.66c-2.14-2.55-3.21-5.97-3.21-10.25c0-4.16,1.1-7.8,3.3-10.92
			c2.2-3.12,5.32-5.51,9.36-7.18c4.04-1.66,8.74-2.5,14.08-2.5c4.87,0,9.73,0.68,14.57,2.05c4.84,1.37,9.05,3.18,12.61,5.44
			l-7.49,15.78C452.8,57.83,449.03,56.11,444.87,54.62z"/>
	</g>
</g>
<g>
	<path class="st0" d="M171.28,188.6c-0.08,0.06-0.46,0.25-1.12,0.58c-0.67,0.33-1.54,0.69-2.62,1.08c-1.08,0.39-2.32,0.74-3.7,1.06
		c-1.39,0.32-2.83,0.48-4.33,0.48c-2.44,0-4.63-0.43-6.57-1.29s-3.59-2.07-4.93-3.64c-1.35-1.57-2.38-3.45-3.1-5.66
		c-0.72-2.2-1.08-4.65-1.08-7.34c0-2.58,0.32-5.41,0.96-8.51c0.64-3.09,1.47-6.27,2.5-9.55c1.03-3.27,2.18-6.55,3.47-9.82
		c1.29-3.27,2.59-6.39,3.91-9.34c1.32-2.95,2.57-5.66,3.77-8.11c1.19-2.45,2.22-4.5,3.08-6.14c-1.55,1.78-3.33,3.82-5.33,6.14
		c-2,2.32-4.13,4.85-6.39,7.61c-2.26,2.76-4.61,5.7-7.05,8.82c-2.44,3.12-4.9,6.36-7.38,9.73c-2.48,3.37-4.95,6.82-7.39,10.36
		c-2.44,3.54-4.77,7.09-6.99,10.67l-2-0.67c0.42-4.52,1.1-9.01,2.06-13.46s2.04-8.74,3.25-12.86c1.21-4.12,2.48-7.99,3.83-11.61
		c1.34-3.62,2.63-6.86,3.85-9.71c-1.86,2.55-3.71,5.32-5.55,8.3c-1.85,2.98-3.71,6.05-5.6,9.19c-1.89,3.15-3.83,6.31-5.82,9.49
		c-2,3.18-4.08,6.23-6.24,9.15c-2.16,2.93-4.45,5.66-6.84,8.2c-2.4,2.54-4.95,4.74-7.66,6.61c-2.7,1.87-5.59,3.35-8.65,4.43
		c-3.07,1.08-6.34,1.62-9.84,1.62c-2.69,0-5.13-0.4-7.32-1.21c-2.19-0.81-4.07-1.91-5.64-3.31c-1.57-1.4-2.77-3.04-3.62-4.93
		c-0.85-1.89-1.27-3.92-1.27-6.12c0-2.14,0.34-4.07,1.02-5.8c0.68-1.73,1.59-3.27,2.72-4.62c1.14-1.34,2.46-2.51,3.97-3.49
		c1.51-0.98,3.1-1.8,4.76-2.43c1.66-0.64,3.35-1.11,5.05-1.41c1.71-0.3,3.34-0.46,4.89-0.46c3.22,0,6.3,0.38,9.24,1.14
		c2.94,0.76,5.77,2.12,8.49,4.06l-1.46,1.62c-0.03-0.03-0.39-0.28-1.08-0.77c-0.69-0.49-1.69-1.02-3-1.6
		c-1.3-0.58-2.92-1.11-4.85-1.58c-1.93-0.47-4.13-0.71-6.59-0.71c-2.39,0-4.7,0.32-6.93,0.96c-2.23,0.64-4.2,1.6-5.91,2.89
		c-1.71,1.29-3.07,2.91-4.1,4.87c-1.03,1.95-1.54,4.25-1.54,6.89c0,1.89,0.37,3.63,1.1,5.24c0.73,1.61,1.75,3,3.06,4.18
		c1.3,1.18,2.87,2.1,4.7,2.77c1.83,0.67,3.86,1,6.08,1c3.33,0,6.52-0.71,9.57-2.12c3.05-1.41,5.99-3.33,8.82-5.74
		c2.83-2.41,5.55-5.23,8.17-8.45s5.14-6.62,7.57-10.19c2.43-3.58,4.78-7.25,7.05-11.02c2.27-3.77,4.48-7.41,6.61-10.92
		c2.14-3.51,4.22-6.79,6.24-9.86c2.02-3.06,4.01-5.71,5.95-7.93l1.87,1.12c-1.22,3.72-2.27,6.98-3.16,9.8
		c-0.89,2.82-1.66,5.29-2.31,7.43c-0.65,2.14-1.21,3.98-1.66,5.53c-0.46,1.55-0.85,2.94-1.19,4.16c-0.33,1.22-0.63,2.32-0.89,3.31
		c-0.26,0.98-0.53,1.96-0.79,2.93c-0.26,0.97-0.56,2-0.89,3.08s-0.73,2.34-1.21,3.77c-0.47,1.43-1.03,3.08-1.66,4.95
		c-0.64,1.87-1.41,4.08-2.33,6.63c2.33-3.52,4.72-6.99,7.18-10.4c2.45-3.41,4.9-6.71,7.34-9.9c2.44-3.19,4.83-6.24,7.18-9.15
		c2.34-2.91,4.56-5.62,6.66-8.11c2.09-2.5,4.02-4.76,5.78-6.8c1.76-2.04,3.29-3.78,4.6-5.22c1.3-1.44,2.32-2.56,3.06-3.37
		c0.73-0.8,1.12-1.22,1.14-1.25l1.75,1.29c-1.64,4.05-3.26,8.11-4.87,12.17c-1.61,4.06-3.16,8.02-4.64,11.88
		c-1.49,3.86-2.86,7.57-4.14,11.15s-2.39,6.93-3.33,10.05c-0.94,3.12-1.69,5.96-2.23,8.53c-0.54,2.57-0.81,4.76-0.81,6.59
		c0,2.16,0.26,4.12,0.77,5.87c0.51,1.75,1.25,3.23,2.23,4.45c0.97,1.22,2.17,2.16,3.6,2.81c1.43,0.65,3.04,0.98,4.85,0.98
		c1.36,0,2.68-0.15,3.97-0.46c1.29-0.31,2.43-0.64,3.43-1c1-0.36,1.8-0.69,2.41-1c0.61-0.31,0.93-0.46,0.96-0.46L171.28,188.6z"/>
	<path class="st0" d="M186.51,159.42c-2.26,4.35-3.61,7.6-4.06,9.75c-0.45,2.16-0.67,3.9-0.67,5.24c0,1.34,0.51,2,1.54,2
		c1.3,0,2.91-1.2,4.82-3.59c2.81-3.49,5.58-8.04,8.32-13.65c0.27-0.62,0.58-0.96,0.92-1.03c0.55-0.2,0.82,0,0.82,0.62
		c0,0.34-0.1,0.75-0.31,1.23c-6.3,12.73-11.6,19.09-15.91,19.09c-1.99,0-3.59-0.96-4.82-2.88c-0.62-1.03-0.92-2.4-0.92-4.11
		c0-1.71,0.34-3.8,1.03-6.26c-5.48,8.83-10.2,13.24-14.17,13.24c-1.1,0-2.09-0.34-2.98-1.03c-2.05-1.44-3.08-3.9-3.08-7.39
		c0-6.71,2.91-13.52,8.73-20.43c3.28-3.83,7.32-6.33,12.11-7.49c1.3-0.34,2.53-0.51,3.7-0.51c3.15,0,5.82,1.1,8.01,3.29
		c0.68,0.75,0.89,1.47,0.62,2.16c-0.27,0.68-0.86,0.96-1.74,0.82c-0.75-2.46-2.4-3.7-4.93-3.7c-2.94,0-6.57,2.33-10.88,6.98
		c-2.46,2.74-4.76,5.95-6.88,9.65c-2.67,4.45-4,8.01-4,10.68s0.86,4,2.57,4c4.11,0,9.48-6.3,16.12-18.89
		c1.3-2.53,2.4-4.26,3.28-5.18c0.89-0.92,2.02-1.39,3.39-1.39c0.27,0,0.98,0.1,2.1,0.31c1.13,0.21,1.97,0.24,2.52,0.1
		C190.51,152.28,188.77,155.07,186.51,159.42z"/>
	<path class="st0" d="M193.9,170.66c0-5.68,2.74-15.19,8.21-28.54h-5.34c-0.34,0-0.57-0.19-0.67-0.56c-0.1-0.38-0.07-0.75,0.1-1.13
		c0.17-0.38,0.43-0.56,0.77-0.56h6.16c2.46-5.41,4.76-9.92,6.88-13.55c2.12-3.63,4.07-6.07,5.85-7.34c1.78-1.26,3.06-1.9,3.85-1.9
		s1.35,0.07,1.69,0.21c1.57,0.75,2.36,2.31,2.36,4.67s-0.79,5.22-2.36,8.57c-1.57,3.35-3.11,6.47-4.62,9.34h4.93
		c0.34,0,0.56,0.19,0.67,0.56c0.1,0.38,0.07,0.75-0.1,1.13c-0.17,0.38-0.43,0.56-0.77,0.56l-5.96,0
		c-3.76,6.36-8.31,12.01-13.65,16.94l-2.36,10.47c-0.2,0.89-0.31,1.76-0.31,2.62c0,0.86,0.24,1.73,0.72,2.62
		c0.48,0.89,1.23,1.33,2.26,1.33c1.16,0,2.46-0.41,3.9-1.23c3.28-2.46,6.91-7.63,10.88-15.5c0.27-0.62,0.6-0.99,0.98-1.13
		c0.37-0.14,0.6-0.05,0.67,0.26c0.07,0.31-0.03,0.81-0.31,1.49c-2.26,4.72-4.04,8.08-5.34,10.06c-3.7,5.96-7.63,8.93-11.81,8.93
		c-2.12,0-3.87-0.79-5.24-2.36C194.58,175.04,193.9,173.05,193.9,170.66z M213.2,142.12h-4.82c-0.82,1.92-2.67,6.47-5.54,13.65
		C206.53,151.94,209.98,147.39,213.2,142.12z M214.54,139.86c4.52-8.07,6.78-13.69,6.78-16.84c0-1.37-0.24-2.05-0.72-2.05
		c-0.75,0-1.9,1.1-3.44,3.28c-1.54,2.19-4.12,7.39-7.75,15.6H214.54z"/>
	<path class="st0" d="M235.89,155.26c2.4-2.88,3.59-5.3,3.59-7.29c0-1.98-0.82-2.98-2.46-2.98c-3.22,0-6.88,2.94-10.98,8.83
		c-1.3,1.85-2.57,4.28-3.8,7.29c-1.23,3.01-1.85,5.73-1.85,8.16c0,2.43,0.5,4.4,1.49,5.9c0.99,1.51,2.53,2.26,4.62,2.26
		c2.09,0,4.02-0.5,5.8-1.49c1.78-0.99,3.47-2.57,5.08-4.72c1.61-2.16,2.82-3.95,3.64-5.39c0.82-1.44,1.95-3.59,3.39-6.47
		c0.48-0.96,0.89-1.35,1.23-1.18c0.34,0.17,0.51,0.41,0.51,0.72c0,0.31-0.46,1.44-1.39,3.39c-0.92,1.95-1.85,3.78-2.77,5.49
		c-0.92,1.71-2.24,3.63-3.95,5.75c-3.08,3.83-7.29,5.75-12.63,5.75c-3.83,0-6.59-0.94-8.26-2.82c-1.68-1.88-2.52-4.06-2.52-6.52
		c0-3.01,0.73-6.3,2.21-9.85c1.47-3.56,3.16-6.64,5.08-9.24c3.97-5.41,8.55-8.11,13.76-8.11c2.53,0,4.36,0.6,5.49,1.8
		c1.13,1.2,1.69,2.58,1.69,4.16c0,2.33-0.96,4.31-2.87,5.95c-0.96,0.89-1.76,1.34-2.41,1.34
		C236.93,155.98,236.37,155.74,235.89,155.26z"/>
	<path class="st0" d="M261.96,174.25c0,1.92,0.68,2.88,2.05,2.88c3.22,0,7.77-6.02,13.65-18.07c0.48-0.96,0.91-1.34,1.28-1.13
		c0.38,0.2,0.56,0.48,0.56,0.82c0,0.34-0.39,1.32-1.18,2.93c-0.79,1.61-1.57,3.15-2.36,4.62c-0.79,1.47-1.93,3.41-3.44,5.8
		c-3.15,4.79-6.5,7.19-10.06,7.19c-2.33,0-4.18-0.96-5.54-2.87c-0.62-0.89-0.92-2.1-0.92-3.64s0.34-3.4,1.03-5.6
		c0.68-2.19,2.57-5.75,5.65-10.68c0.75-1.23,1.13-2.21,1.13-2.93c0-0.72-0.58-1.08-1.75-1.08c-1.17,0-3.39,1.54-6.67,4.62
		c-4.93,4.52-9.72,11.29-14.37,20.33c-0.48,1.03-1.75,1.54-3.8,1.54c-1.85,0.14-3.01,0.34-3.49,0.62
		c13-27.03,22.41-45.89,28.23-56.57c1.3-2.39,2.45-4.07,3.44-5.03c0.99-0.96,2.17-1.44,3.54-1.44c0.34,0,1.06,0.09,2.16,0.26
		c1.09,0.17,1.92,0.22,2.46,0.15c-2.05,2.12-5.73,7.99-11.04,17.61c-5.31,9.62-10.39,19.39-15.25,29.31
		c3.22-4.04,6.11-7.19,8.68-9.44c2.57-2.26,5.7-4.4,9.39-6.42c3.7-2.02,6.4-3.03,8.11-3.03c0.41,0,0.79,0.07,1.13,0.21
		C266.17,159.98,261.96,169.67,261.96,174.25z"/>
	<path class="st0" d="M326.33,145.2c-8.35,14.85-12.52,24.43-12.52,28.74c0,1.92,0.65,2.87,1.95,2.87c1.64,0,3.53-1.23,5.65-3.7
		c3.22-3.9,6.02-8.59,8.42-14.06c0.41-0.96,0.82-1.34,1.23-1.13c0.41,0.2,0.62,0.48,0.62,0.82c0,0.34-0.34,1.2-1.03,2.57
		c-0.68,1.37-1.23,2.46-1.64,3.28c-0.41,0.82-1.32,2.4-2.72,4.72c-1.4,2.33-2.6,4.04-3.59,5.13c-0.99,1.1-2.26,2.17-3.8,3.23
		s-3.28,1.59-5.24,1.59c-1.95,0-3.61-0.96-4.98-2.87c-0.62-0.89-0.92-2.1-0.92-3.64s0.34-3.4,1.03-5.6
		c0.68-2.19,2.57-5.75,5.65-10.68c0.75-1.23,1.13-2.21,1.13-2.93c0-0.72-0.56-1.08-1.69-1.08s-3.17,1.37-6.11,4.11
		c-2.94,2.74-6.04,6.43-9.29,11.09c-3.25,4.65-5.18,8.38-5.8,11.19c-1.17,0-2.02-0.48-2.57-1.44c-0.55-0.96-0.82-1.78-0.82-2.46
		c0-2.8,1.88-8.14,5.65-16.01c1.23-2.6,1.88-4.36,1.95-5.29c0.07-0.92-0.05-1.4-0.36-1.44c-0.31-0.03-0.73,0.09-1.28,0.36
		c-1.23,0.62-3.11,2.12-5.65,4.52c-4.79,4.38-9.51,11.05-14.17,20.02c-0.34,0.75-0.77,1.22-1.28,1.39
		c-0.51,0.17-1.52,0.29-3.03,0.36c-1.5,0.07-2.5,0.24-2.98,0.51c1.23-2.4,3.39-6.88,6.47-13.45c5.54-11.77,9.24-18.55,11.09-20.33
		c0.82-0.82,1.95-1.23,3.39-1.23c0.27,0,0.98,0.1,2.1,0.31c1.13,0.2,1.97,0.24,2.52,0.1c-2.53,1.37-6.67,7.8-12.42,19.3
		c3.22-3.97,5.53-6.57,6.93-7.8c1.4-1.23,2.45-2.15,3.13-2.77c0.68-0.62,1.21-1.09,1.59-1.44c0.38-0.34,0.92-0.84,1.64-1.49
		c0.72-0.65,1.26-1.13,1.64-1.44c0.38-0.31,0.91-0.73,1.59-1.28c0.68-0.55,1.21-0.91,1.59-1.08c0.38-0.17,0.89-0.46,1.54-0.87
		c0.65-0.41,1.13-0.62,1.44-0.62c0.31,0,0.73-0.08,1.28-0.26c0.55-0.17,0.92-0.12,1.13,0.15c1.37,0.55,2.05,1.4,2.05,2.57
		c0,1.03-1.16,3.66-3.49,7.9c-2.33,4.24-3.83,7.05-4.52,8.42c3.01-3.76,5.88-6.86,8.62-9.29c2.74-2.43,5.97-4.67,9.7-6.72
		c3.73-2.05,6.45-3.08,8.16-3.08C325.71,145,326.06,145.07,326.33,145.2z"/>
	<path class="st0" d="M355.79,159.42c-2.26,4.35-3.61,7.6-4.06,9.75c-0.45,2.16-0.67,3.9-0.67,5.24c0,1.34,0.51,2,1.54,2
		c1.3,0,2.91-1.2,4.82-3.59c2.8-3.49,5.58-8.04,8.31-13.65c0.27-0.62,0.58-0.96,0.93-1.03c0.55-0.2,0.82,0,0.82,0.62
		c0,0.34-0.1,0.75-0.31,1.23c-6.3,12.73-11.6,19.09-15.91,19.09c-1.99,0-3.59-0.96-4.82-2.87c-0.62-1.03-0.92-2.4-0.92-4.11
		c0-1.71,0.34-3.8,1.03-6.26c-5.48,8.83-10.2,13.24-14.17,13.24c-1.1,0-2.09-0.34-2.98-1.03c-2.05-1.44-3.08-3.9-3.08-7.39
		c0-6.71,2.91-13.52,8.73-20.43c3.28-3.83,7.32-6.33,12.11-7.49c1.3-0.34,2.53-0.51,3.7-0.51c3.15,0,5.82,1.1,8.01,3.29
		c0.68,0.75,0.89,1.47,0.62,2.16c-0.27,0.68-0.86,0.96-1.74,0.82c-0.75-2.46-2.4-3.7-4.93-3.7c-2.94,0-6.57,2.33-10.88,6.98
		c-2.46,2.74-4.76,5.95-6.88,9.65c-2.67,4.45-4,8.01-4,10.68s0.86,4,2.57,4c4.11,0,9.48-6.3,16.12-18.89
		c1.3-2.53,2.4-4.26,3.28-5.18c0.89-0.92,2.02-1.39,3.39-1.39c0.27,0,0.97,0.1,2.1,0.31c1.13,0.21,1.97,0.24,2.52,0.1
		C359.8,152.29,358.05,155.08,355.79,159.42z"/>
	<path class="st0" d="M392.24,151.16c0-1.85-0.92-2.77-2.77-2.77c-2.74,0-5.9,1.56-9.5,4.67c-3.59,3.12-6.59,6.38-8.98,9.8
		c-1.03,1.99-1.87,4.48-2.51,7.49c-0.65,3.01-0.98,5.1-0.98,6.26c0,1.17,0.2,1.92,0.62,2.26h-6.47c-1.03,0-1.28-0.91-0.77-2.72
		c0.51-1.81,1.21-3.78,2.1-5.9c0.89-2.12,2-4.57,3.34-7.34c1.34-2.77,2.31-4.88,2.93-6.31c-5.61,10.61-9.24,16.7-10.88,18.27
		c-0.68,0.62-1.03,0.41-1.03-0.62c0-0.2,0.07-0.44,0.21-0.72c2.39-3.15,7.17-11.7,14.32-25.66c7.15-13.96,12.17-23.1,15.04-27.41
		c2.33-3.35,4.59-5.03,6.78-5.03h0.1h0.51c0.07,0,0.67,0.1,1.8,0.31c1.13,0.21,1.97,0.24,2.52,0.1c-2.53,1.91-6.02,6.31-10.47,13.19
		c-4.45,6.88-7.97,12.9-10.57,18.07c-2.6,5.17-4.35,9.09-5.24,11.75c6.23-7.73,11.81-12.52,16.73-14.37
		c2.33-0.75,4.17-1.13,5.54-1.13c3.01,0,4.52,1.27,4.52,3.8c0,0.82-0.17,1.75-0.51,2.77c-0.96,2.6-2.93,4.94-5.9,7.03
		c-2.98,2.09-6.25,3.3-9.8,3.64c-0.82,1.92-1.23,3.68-1.23,5.29c0,1.61,0.17,3.06,0.51,4.36c0.82,3.28,2.36,5.3,4.62,6.06
		c0.48,0.14,0.96,0.2,1.44,0.2c1.92,0,4.17-1.2,6.78-3.59c2.12-2.32,4.89-7.01,8.32-14.06c0.48-0.89,0.86-1.18,1.13-0.87
		c0.27,0.31,0.41,0.6,0.41,0.87c0,0.27-0.51,1.61-1.54,4c-1.03,2.4-2.46,5.03-4.31,7.9c-3.9,5.89-8.21,8.83-12.94,8.83
		c-2.88,0-5.1-0.82-6.67-2.46c-2.26-2.33-3.39-5.37-3.39-9.14c0-1.91,0.51-3.87,1.54-5.85c1.03-1.98,2.22-3.04,3.59-3.18
		c0.21,0,0.41,0,0.62,0c2.39,0,4.74-0.92,7.03-2.77S392.24,152.66,392.24,151.16z"/>
	<path class="st0" d="M407.53,163.07c-0.96,2.33-1.44,4.93-1.44,7.8c0,1.92,0.43,3.44,1.28,4.57c0.85,1.13,2.07,1.69,3.64,1.69
		c6.23,0,11.87-5.85,16.94-17.56c0.48-1.09,1.06-1.57,1.74-1.44c0.27,0.07,0.41,0.24,0.41,0.51c0,0.27-0.77,2.07-2.31,5.39
		c-1.54,3.32-3.1,6.01-4.67,8.06c-3.49,4.79-7.8,7.19-12.94,7.19c-2.74,0-5.07-0.89-6.98-2.67c-1.92-1.78-2.87-4.21-2.87-7.29
		c0-3.08,0.73-6.35,2.21-9.8c1.47-3.46,3.47-6.67,6.01-9.65s5.44-5.15,8.73-6.52c1.57-0.68,3.08-1.03,4.52-1.03
		c1.44,0,2.77,0.41,4,1.23c1.16,0.96,1.74,2.02,1.74,3.18c0,4.11-2.46,8.04-7.39,11.81c-1.51,1.17-3.63,2.21-6.36,3.13
		C411.06,162.6,408.97,163.07,407.53,163.07z M424.78,146.64c0-1.37-0.55-2.05-1.64-2.05c-1.92,0-4.82,2.36-8.73,7.08
		c-2.33,2.88-4.38,6.09-6.16,9.65c1.16,0,2.86-0.41,5.08-1.23c2.22-0.82,4.16-1.91,5.8-3.28
		C422.9,153.59,424.78,150.2,424.78,146.64z"/>
	<path class="st0" d="M442.13,137.71c0,3.08-1.95,5.99-5.85,8.73c1.37,0.07,3.2,0.1,5.49,0.1c2.29,0,5.18-0.17,8.67-0.51
		c0.14,0.21,0.21,0.75,0.21,1.64c0,0.89-0.41,2.21-1.23,3.95c-0.82,1.74-1.56,3.25-2.21,4.52c-0.65,1.27-1.27,2.46-1.85,3.59
		c-0.58,1.13-1.23,2.52-1.95,4.16c-0.72,1.64-1.32,3.15-1.8,4.52c-1.71,5.2-1.44,7.8,0.82,7.8c2.87,0,7.12-5.71,12.73-17.14
		c0.48-0.89,0.87-1.23,1.18-1.03c0.31,0.21,0.46,0.46,0.46,0.77s-0.45,1.37-1.33,3.18c-0.89,1.81-1.85,3.68-2.87,5.6
		c-1.03,1.92-2.64,4.14-4.83,6.67c-2.6,3.15-5.1,4.72-7.49,4.72c-2.67,0-4.52-1.61-5.54-4.82c-0.2-0.62-0.31-1.54-0.31-2.77
		c0-1.23,0.39-2.87,1.18-4.93c0.78-2.05,2.04-4.55,3.75-7.49c1.71-2.94,2.67-4.67,2.88-5.18c0.21-0.51,0.31-1.01,0.31-1.49
		c0-2.12-2.74-3.25-8.21-3.39l-1.23,3.28c-4.31,11.29-8.45,18.86-12.42,22.69c-0.68,0.62-1.03,0.41-1.03-0.62
		c0-0.2,0.07-0.44,0.2-0.72c3.83-5.06,7.15-11.05,9.96-17.97c2.8-6.91,4.76-13.48,5.85-19.71c0.41-2.12,1.37-3.18,2.87-3.18
		c1.5,0,2.6,0.96,3.29,2.87C442.03,136.17,442.13,136.89,442.13,137.71z"/>
</g>
</svg>
