<?xml version="1.0" encoding="utf-8"?>
<!-- Generator: Adobe Illustrator 26.0.1, SVG Export Plug-In . SVG Version: 6.00 Build 0)  -->
<svg version="1.1" id="Layer_1" xmlns="http://www.w3.org/2000/svg" xmlns:xlink="http://www.w3.org/1999/xlink" x="0px" y="0px"
	 viewBox="0 0 1920 520.44" style="enable-background:new 0 0 1920 520.44;" xml:space="preserve" fill="#red">
<style type="text/css">
	.st0{fill:#8a8787;}
</style>
<path class="st0" d="M1163.92,70.81h-3.17v292.26h-411.6V70.85h-3.17l-0.03,3.17c69.45,0.59,138.88,0.89,208.32,0.89
	c13.88,0,27.77-0.01,41.65-0.04c56-0.09,112.02-0.4,168.02-0.9L1163.92,70.81h-3.17H1163.92l-0.03-3.17
	c-55.98,0.5-111.99,0.81-167.98,0.9c-13.88,0.02-27.76,0.04-41.64,0.04c-69.42,0-138.84-0.3-208.27-0.89l-3.2-0.03v301.75h424.28
	V67.61l-3.2,0.03L1163.92,70.81z"/>
<path class="st0" d="M1163.92,70.66h-3.17v0.14h3.17l-0.03-3.17c-55.98,0.5-111.99,0.81-167.98,0.9
	c-13.88,0.02-27.76,0.04-41.64,0.04c-69.42,0-138.84-0.3-208.27-0.89l-0.03,3.17h3.17v-0.19h-3.17v3.17h417.94V70.66h-3.17H1163.92
	v-3.17H742.81V74l3.14,0.03c69.45,0.59,138.88,0.89,208.32,0.89c13.88,0,27.77-0.01,41.65-0.04c56-0.09,112.02-0.4,168.02-0.9
	l3.14-0.03v-6.45h-3.17V70.66z"/>
<path class="st0" d="M1685.55,34.73h-3.17v25.71h3.17l-0.1-3.17c-173.85,5.37-347.69,8.82-521.56,10.36
	c-55.98,0.5-111.99,0.81-167.98,0.9c-13.88,0.02-27.76,0.04-41.64,0.04c-69.42,0-138.84-0.3-208.27-0.89
	c-168.67-1.45-337.33-4.71-506-9.74l-0.09,3.17h3.17V34.73h-3.17l-0.13,3.17c157.97,6.65,320.18,11.29,486.45,13.57
	c77.25,1.07,155.41,1.62,234.42,1.64c79.34,0,157.83-0.52,235.44-1.59c167.36-2.26,330.62-6.94,489.59-13.62L1685.55,34.73h-3.17
	H1685.55l-0.13-3.17c-158.92,6.68-322.11,11.36-489.41,13.61c-77.58,1.07-156.04,1.59-235.36,1.59
	c-78.98-0.02-157.11-0.57-234.33-1.64c-166.21-2.28-328.36-6.91-486.27-13.57l-3.3-0.14v32.76l3.07,0.09
	c168.71,5.04,337.42,8.3,506.13,9.75c69.45,0.59,138.88,0.89,208.32,0.89c13.88,0,27.77-0.01,41.65-0.04
	c56-0.09,112.02-0.4,168.02-0.9c173.92-1.55,347.81-4.99,521.7-10.36l3.07-0.09V31.43l-3.3,0.14L1685.55,34.73z"/>
<path class="st0" d="M1196.05,28.67h-3.17v19.68h3.17l-0.04-3.17c-77.58,1.07-156.04,1.59-235.35,1.59
	c-78.98-0.02-157.11-0.57-234.33-1.64l-0.04,3.17h3.17V31.84l466.61,0V28.67h-3.17H1196.05V25.5H723.11v25.93l3.13,0.04
	c77.25,1.07,155.41,1.62,234.42,1.64c79.34,0,157.83-0.52,235.44-1.59l3.13-0.04V25.5h-3.17V28.67z"/>
<polygon class="st0" points="826.87,161.24 826.87,158.07 778.19,158.07 778.19,119.13 823.7,119.13 823.7,161.24 826.87,161.24 
	826.87,158.07 826.87,161.24 830.04,161.24 830.04,112.79 771.85,112.79 771.85,164.41 830.04,164.41 830.04,161.24 "/>
<polygon class="st0" points="907.42,161.24 907.42,158.07 858.73,158.07 858.73,119.13 904.25,119.13 904.25,161.24 907.42,161.24 
	907.42,158.07 907.42,161.24 910.59,161.24 910.59,112.79 852.4,112.79 852.4,164.41 910.59,164.41 910.59,161.24 "/>
<polygon class="st0" points="984.85,161.24 984.85,158.07 936.17,158.07 936.17,119.13 981.68,119.13 981.68,161.24 984.85,161.24 
	984.85,158.07 984.85,161.24 988.02,161.24 988.02,112.79 929.83,112.79 929.83,164.41 988.02,164.41 988.02,161.24 "/>
<polygon class="st0" points="1065.05,161.24 1065.05,158.07 1016.37,158.07 1016.37,119.13 1061.88,119.13 1061.88,161.24 
	1065.05,161.24 1065.05,158.07 1065.05,161.24 1068.22,161.24 1068.22,112.79 1010.03,112.79 1010.03,164.41 1068.22,164.41 
	1068.22,161.24 "/>
<polygon class="st0" points="1143.17,161.24 1143.17,158.07 1094.49,158.07 1094.49,119.13 1140,119.13 1140,161.24 1143.17,161.24 
	1143.17,158.07 1143.17,161.24 1146.34,161.24 1146.34,112.79 1088.15,112.79 1088.15,164.41 1146.34,164.41 1146.34,161.24 "/>
<polygon class="st0" points="826.87,256.13 826.87,252.96 778.19,252.96 778.19,214.02 823.7,214.02 823.7,256.13 826.87,256.13 
	826.87,252.96 826.87,256.13 830.04,256.13 830.04,207.68 771.85,207.68 771.85,259.3 830.04,259.3 830.04,256.13 "/>
<polygon class="st0" points="907.42,256.13 907.42,252.96 858.73,252.96 858.73,214.02 904.25,214.02 904.25,256.13 907.42,256.13 
	907.42,252.96 907.42,256.13 910.59,256.13 910.59,207.68 852.4,207.68 852.4,259.3 910.59,259.3 910.59,256.13 "/>
<polygon class="st0" points="984.85,256.13 984.85,252.96 936.17,252.96 936.17,214.02 981.68,214.02 981.68,256.13 984.85,256.13 
	984.85,252.96 984.85,256.13 988.02,256.13 988.02,207.68 929.83,207.68 929.83,259.3 988.02,259.3 988.02,256.13 "/>
<polygon class="st0" points="1065.05,256.13 1065.05,252.96 1016.37,252.96 1016.37,214.02 1061.88,214.02 1061.88,256.13 
	1065.05,256.13 1065.05,252.96 1065.05,256.13 1068.22,256.13 1068.22,207.68 1010.03,207.68 1010.03,259.3 1068.22,259.3 
	1068.22,256.13 "/>
<polygon class="st0" points="1143.17,256.13 1143.17,252.96 1094.49,252.96 1094.49,214.02 1140,214.02 1140,256.13 1143.17,256.13 
	1143.17,252.96 1143.17,256.13 1146.34,256.13 1146.34,207.68 1088.15,207.68 1088.15,259.3 1146.34,259.3 1146.34,256.13 "/>
<polygon class="st0" points="826.87,349.12 826.87,345.95 778.19,345.95 778.19,307.01 823.7,307.01 823.7,349.12 826.87,349.12 
	826.87,345.95 826.87,349.12 830.04,349.12 830.04,300.67 771.85,300.67 771.85,352.29 830.04,352.29 830.04,349.12 "/>
<polygon class="st0" points="907.42,349.12 907.42,345.95 858.73,345.95 858.73,307.01 904.25,307.01 904.25,349.12 907.42,349.12 
	907.42,345.95 907.42,349.12 910.59,349.12 910.59,300.67 852.4,300.67 852.4,352.29 910.59,352.29 910.59,349.12 "/>
<polygon class="st0" points="984.85,349.12 984.85,345.95 936.17,345.95 936.17,307.01 981.68,307.01 981.68,349.12 984.85,349.12 
	984.85,345.95 984.85,349.12 988.02,349.12 988.02,300.67 929.83,300.67 929.83,352.29 988.02,352.29 988.02,349.12 "/>
<polygon class="st0" points="1065.05,349.12 1065.05,345.95 1016.37,345.95 1016.37,307.01 1061.88,307.01 1061.88,349.12 
	1065.05,349.12 1065.05,345.95 1065.05,349.12 1068.22,349.12 1068.22,300.67 1010.03,300.67 1010.03,352.29 1068.22,352.29 
	1068.22,349.12 "/>
<polygon class="st0" points="1143.17,349.12 1143.17,345.95 1094.49,345.95 1094.49,307.01 1140,307.01 1140,349.12 1143.17,349.12 
	1143.17,345.95 1143.17,349.12 1146.34,349.12 1146.34,300.67 1088.15,300.67 1088.15,352.29 1146.34,352.29 1146.34,349.12 "/>
<polygon class="st0" points="1226.64,255.61 1226.64,252.44 1176.42,252.44 1176.42,213.5 1223.47,213.5 1223.47,255.61 
	1226.64,255.61 1226.64,252.44 1226.64,255.61 1229.81,255.61 1229.81,207.16 1170.08,207.16 1170.08,258.78 1229.81,258.78 
	1229.81,255.61 "/>
<polygon class="st0" points="1309.57,255.61 1309.57,252.44 1259.35,252.44 1259.35,213.5 1306.4,213.5 1306.4,255.61 
	1309.57,255.61 1309.57,252.44 1309.57,255.61 1312.74,255.61 1312.74,207.16 1253.01,207.16 1253.01,258.78 1312.74,258.78 
	1312.74,255.61 "/>
<polygon class="st0" points="1389.3,255.61 1389.3,252.44 1339.08,252.44 1339.08,213.5 1386.13,213.5 1386.13,255.61 
	1389.3,255.61 1389.3,252.44 1389.3,255.61 1392.47,255.61 1392.47,207.16 1332.74,207.16 1332.74,258.78 1392.47,258.78 
	1392.47,255.61 "/>
<polygon class="st0" points="1471.88,255.61 1471.88,252.44 1421.66,252.44 1421.66,213.5 1468.71,213.5 1468.71,255.61 
	1471.88,255.61 1471.88,252.44 1471.88,255.61 1475.05,255.61 1475.05,207.16 1415.32,207.16 1415.32,258.78 1475.05,258.78 
	1475.05,255.61 "/>
<polygon class="st0" points="1552.32,255.61 1552.32,252.44 1502.1,252.44 1502.1,213.5 1549.15,213.5 1549.15,255.61 
	1552.32,255.61 1552.32,252.44 1552.32,255.61 1555.49,255.61 1555.49,207.16 1495.76,207.16 1495.76,258.78 1555.49,258.78 
	1555.49,255.61 "/>
<polygon class="st0" points="1633.12,255.61 1633.12,252.44 1582.9,252.44 1582.9,213.5 1629.95,213.5 1629.95,255.61 
	1633.12,255.61 1633.12,252.44 1633.12,255.61 1636.29,255.61 1636.29,207.16 1576.56,207.16 1576.56,258.78 1636.29,258.78 
	1636.29,255.61 "/>
<polygon class="st0" points="1713.56,255.61 1713.56,252.44 1663.34,252.44 1663.34,213.5 1710.39,213.5 1710.39,255.61 
	1713.56,255.61 1713.56,252.44 1713.56,255.61 1716.73,255.61 1716.73,207.16 1657,207.16 1657,258.78 1716.73,258.78 
	1716.73,255.61 "/>
<polygon class="st0" points="1800.59,255.61 1800.59,252.44 1750.37,252.44 1750.37,213.5 1797.42,213.5 1797.42,255.61 
	1800.59,255.61 1800.59,252.44 1800.59,255.61 1803.76,255.61 1803.76,207.16 1744.03,207.16 1744.03,258.78 1803.76,258.78 
	1803.76,255.61 "/>
<polygon class="st0" points="1881.03,255.61 1881.03,252.44 1830.81,252.44 1830.81,213.5 1877.86,213.5 1877.86,255.61 
	1881.03,255.61 1881.03,252.44 1881.03,255.61 1884.2,255.61 1884.2,207.16 1824.47,207.16 1824.47,258.78 1884.2,258.78 
	1884.2,255.61 "/>
<polygon class="st0" points="1226.64,347.39 1226.64,344.22 1176.42,344.22 1176.42,305.28 1223.47,305.28 1223.47,347.39 
	1226.64,347.39 1226.64,344.22 1226.64,347.39 1229.81,347.39 1229.81,298.94 1170.08,298.94 1170.08,350.56 1229.81,350.56 
	1229.81,347.39 "/>
<polygon class="st0" points="1309.57,347.39 1309.57,344.22 1259.35,344.22 1259.35,305.28 1306.4,305.28 1306.4,347.39 
	1309.57,347.39 1309.57,344.22 1309.57,347.39 1312.74,347.39 1312.74,298.94 1253.01,298.94 1253.01,350.56 1312.74,350.56 
	1312.74,347.39 "/>
<polygon class="st0" points="1389.3,347.39 1389.3,344.22 1339.08,344.22 1339.08,305.28 1386.13,305.28 1386.13,347.39 
	1389.3,347.39 1389.3,344.22 1389.3,347.39 1392.47,347.39 1392.47,298.94 1332.74,298.94 1332.74,350.56 1392.47,350.56 
	1392.47,347.39 "/>
<polygon class="st0" points="1471.88,347.39 1471.88,344.22 1421.66,344.22 1421.66,305.28 1468.71,305.28 1468.71,347.39 
	1471.88,347.39 1471.88,344.22 1471.88,347.39 1475.05,347.39 1475.05,298.94 1415.32,298.94 1415.32,350.56 1475.05,350.56 
	1475.05,347.39 "/>
<polygon class="st0" points="1552.32,347.39 1552.32,344.22 1502.1,344.22 1502.1,305.28 1549.15,305.28 1549.15,347.39 
	1552.32,347.39 1552.32,344.22 1552.32,347.39 1555.49,347.39 1555.49,298.94 1495.76,298.94 1495.76,350.56 1555.49,350.56 
	1555.49,347.39 "/>
<polygon class="st0" points="1633.12,347.39 1633.12,344.22 1582.9,344.22 1582.9,305.28 1629.95,305.28 1629.95,347.39 
	1633.12,347.39 1633.12,344.22 1633.12,347.39 1636.29,347.39 1636.29,298.94 1576.56,298.94 1576.56,350.56 1636.29,350.56 
	1636.29,347.39 "/>
<polygon class="st0" points="1713.56,347.39 1713.56,344.22 1663.34,344.22 1663.34,305.28 1710.39,305.28 1710.39,347.39 
	1713.56,347.39 1713.56,344.22 1713.56,347.39 1716.73,347.39 1716.73,298.94 1657,298.94 1657,350.56 1716.73,350.56 
	1716.73,347.39 "/>
<polygon class="st0" points="1226.64,438.48 1226.64,435.31 1176.42,435.31 1176.42,396.37 1223.47,396.37 1223.47,438.48 
	1226.64,438.48 1226.64,435.31 1226.64,438.48 1229.81,438.48 1229.81,390.03 1170.08,390.03 1170.08,441.65 1229.81,441.65 
	1229.81,438.48 "/>
<polygon class="st0" points="1309.57,438.48 1309.57,435.31 1259.35,435.31 1259.35,396.37 1306.4,396.37 1306.4,438.48 
	1309.57,438.48 1309.57,435.31 1309.57,438.48 1312.74,438.48 1312.74,390.03 1253.01,390.03 1253.01,441.65 1312.74,441.65 
	1312.74,438.48 "/>
<polygon class="st0" points="1389.3,438.48 1389.3,435.31 1339.08,435.31 1339.08,396.37 1386.13,396.37 1386.13,438.48 
	1389.3,438.48 1389.3,435.31 1389.3,438.48 1392.47,438.48 1392.47,390.03 1332.74,390.03 1332.74,441.65 1392.47,441.65 
	1392.47,438.48 "/>
<polygon class="st0" points="1471.88,438.48 1471.88,435.31 1421.66,435.31 1421.66,396.37 1468.71,396.37 1468.71,438.48 
	1471.88,438.48 1471.88,435.31 1471.88,438.48 1475.05,438.48 1475.05,390.03 1415.32,390.03 1415.32,441.65 1475.05,441.65 
	1475.05,438.48 "/>
<polyline class="st0" points="1552.32,438.48 1552.32,435.31 1502.1,435.31 1502.1,396.37 1549.15,396.37 1549.15,438.48 
	1552.32,438.48 1552.32,435.31 1552.32,438.48 1555.49,438.48 1555.49,390.03 1495.76,390.03 1495.76,441.65 1555.49,441.65 
	1555.49,438.48 1552.32,438.48 "/>
<polyline class="st0" points="1633.12,438.48 1633.12,435.31 1582.9,435.31 1582.9,396.37 1629.95,396.37 1629.95,438.48 
	1633.12,438.48 1633.12,435.31 1633.12,438.48 1636.29,438.48 1636.29,390.03 1576.56,390.03 1576.56,441.65 1636.29,441.65 
	1636.29,438.48 1633.12,438.48 "/>
<polygon class="st0" points="1713.56,438.48 1713.56,435.31 1663.34,435.31 1663.34,396.37 1710.39,396.37 1710.39,438.48 
	1713.56,438.48 1713.56,435.31 1713.56,438.48 1716.73,438.48 1716.73,390.03 1657,390.03 1657,441.65 1716.73,441.65 
	1716.73,438.48 "/>
<polygon class="st0" points="1800.59,347.39 1800.59,344.22 1750.37,344.22 1750.37,305.28 1797.42,305.28 1797.42,347.39 
	1800.59,347.39 1800.59,344.22 1800.59,347.39 1803.76,347.39 1803.76,298.94 1744.03,298.94 1744.03,350.56 1803.76,350.56 
	1803.76,347.39 "/>
<polygon class="st0" points="1881.03,347.39 1881.03,344.22 1830.81,344.22 1830.81,305.28 1877.86,305.28 1877.86,347.39 
	1881.03,347.39 1881.03,344.22 1881.03,347.39 1884.2,347.39 1884.2,298.94 1824.47,298.94 1824.47,350.56 1884.2,350.56 
	1884.2,347.39 "/>
<polygon class="st0" points="1800.59,438.48 1800.59,435.31 1750.37,435.31 1750.37,396.37 1797.42,396.37 1797.42,438.48 
	1800.59,438.48 1800.59,435.31 1800.59,438.48 1803.76,438.48 1803.76,390.03 1744.03,390.03 1744.03,441.65 1803.76,441.65 
	1803.76,438.48 "/>
<polygon class="st0" points="1881.03,438.48 1881.03,435.31 1830.81,435.31 1830.81,396.37 1877.86,396.37 1877.86,438.48 
	1881.03,438.48 1881.03,435.31 1881.03,438.48 1884.2,438.48 1884.2,390.03 1824.47,390.03 1824.47,441.65 1884.2,441.65 
	1884.2,438.48 "/>
<polygon class="st0" points="1226.64,162.8 1226.64,159.63 1176.42,159.63 1176.42,120.68 1223.47,120.68 1223.47,162.8 
	1226.64,162.8 1226.64,159.63 1226.64,162.8 1229.81,162.8 1229.81,114.34 1170.08,114.34 1170.08,165.97 1229.81,165.97 
	1229.81,162.8 "/>
<polygon class="st0" points="1309.57,162.8 1309.57,159.63 1259.35,159.63 1259.35,120.68 1306.4,120.68 1306.4,162.8 
	1309.57,162.8 1309.57,159.63 1309.57,162.8 1312.74,162.8 1312.74,114.34 1253.01,114.34 1253.01,165.97 1312.74,165.97 
	1312.74,162.8 "/>
<polygon class="st0" points="1389.3,162.8 1389.3,159.63 1339.08,159.63 1339.08,120.68 1386.13,120.68 1386.13,162.8 1389.3,162.8 
	1389.3,159.63 1389.3,162.8 1392.47,162.8 1392.47,114.34 1332.74,114.34 1332.74,165.97 1392.47,165.97 1392.47,162.8 "/>
<polygon class="st0" points="1471.88,162.8 1471.88,159.63 1421.66,159.63 1421.66,120.68 1468.71,120.68 1468.71,162.8 
	1471.88,162.8 1471.88,159.63 1471.88,162.8 1475.05,162.8 1475.05,114.34 1415.32,114.34 1415.32,165.97 1475.05,165.97 
	1475.05,162.8 "/>
<polygon class="st0" points="1552.32,162.8 1552.32,159.63 1502.1,159.63 1502.1,120.68 1549.15,120.68 1549.15,162.8 
	1552.32,162.8 1552.32,159.63 1552.32,162.8 1555.49,162.8 1555.49,114.34 1495.76,114.34 1495.76,165.97 1555.49,165.97 
	1555.49,162.8 "/>
<polygon class="st0" points="1633.12,162.8 1633.12,159.63 1582.9,159.63 1582.9,120.68 1629.95,120.68 1629.95,162.8 
	1633.12,162.8 1633.12,159.63 1633.12,162.8 1636.29,162.8 1636.29,114.34 1576.56,114.34 1576.56,165.97 1636.29,165.97 
	1636.29,162.8 "/>
<polygon class="st0" points="1713.56,162.8 1713.56,159.63 1663.34,159.63 1663.34,120.68 1710.39,120.68 1710.39,162.8 
	1713.56,162.8 1713.56,159.63 1713.56,162.8 1716.73,162.8 1716.73,114.34 1657,114.34 1657,165.97 1716.73,165.97 1716.73,162.8 
	"/>
<polygon class="st0" points="1800.59,162.8 1800.59,159.63 1750.37,159.63 1750.37,120.68 1797.42,120.68 1797.42,162.8 
	1800.59,162.8 1800.59,159.63 1800.59,162.8 1803.76,162.8 1803.76,114.34 1744.03,114.34 1744.03,165.97 1803.76,165.97 
	1803.76,162.8 "/>
<polygon class="st0" points="1881.03,162.8 1881.03,159.63 1830.81,159.63 1830.81,120.68 1877.86,120.68 1877.86,162.8 
	1881.03,162.8 1881.03,159.63 1881.03,162.8 1884.2,162.8 1884.2,114.34 1824.47,114.34 1824.47,165.97 1884.2,165.97 1884.2,162.8 
	"/>
<polygon class="st0" points="84.06,255.61 84.06,252.44 33.84,252.44 33.84,213.5 80.89,213.5 80.89,255.61 84.06,255.61 
	84.06,252.44 84.06,255.61 87.23,255.61 87.23,207.16 27.5,207.16 27.5,258.78 87.23,258.78 87.23,255.61 "/>
<polygon class="st0" points="167,255.61 167,252.44 116.78,252.44 116.78,213.5 163.83,213.5 163.83,255.61 167,255.61 167,252.44 
	167,255.61 170.17,255.61 170.17,207.16 110.44,207.16 110.44,258.78 170.17,258.78 170.17,255.61 "/>
<polygon class="st0" points="246.73,255.61 246.73,252.44 196.51,252.44 196.51,213.5 243.56,213.5 243.56,255.61 246.73,255.61 
	246.73,252.44 246.73,255.61 249.9,255.61 249.9,207.16 190.17,207.16 190.17,258.78 249.9,258.78 249.9,255.61 "/>
<polygon class="st0" points="329.31,255.61 329.31,252.44 279.08,252.44 279.08,213.5 326.14,213.5 326.14,255.61 329.31,255.61 
	329.31,252.44 329.31,255.61 332.48,255.61 332.48,207.16 272.75,207.16 272.75,258.78 332.48,258.78 332.48,255.61 "/>
<polygon class="st0" points="409.75,255.61 409.75,252.44 359.53,252.44 359.53,213.5 406.58,213.5 406.58,255.61 409.75,255.61 
	409.75,252.44 409.75,255.61 412.92,255.61 412.92,207.16 353.19,207.16 353.19,258.78 412.92,258.78 412.92,255.61 "/>
<polygon class="st0" points="490.55,255.61 490.55,252.44 440.32,252.44 440.32,213.5 487.38,213.5 487.38,255.61 490.55,255.61 
	490.55,252.44 490.55,255.61 493.72,255.61 493.72,207.16 433.99,207.16 433.99,258.78 493.72,258.78 493.72,255.61 "/>
<polygon class="st0" points="570.99,255.61 570.99,252.44 520.77,252.44 520.77,213.5 567.82,213.5 567.82,255.61 570.99,255.61 
	570.99,252.44 570.99,255.61 574.16,255.61 574.16,207.16 514.43,207.16 514.43,258.78 574.16,258.78 574.16,255.61 "/>
<polygon class="st0" points="658.01,255.61 658.01,252.44 607.79,252.44 607.79,213.5 654.85,213.5 654.85,255.61 658.01,255.61 
	658.01,252.44 658.01,255.61 661.18,255.61 661.18,207.16 601.46,207.16 601.46,258.78 661.18,258.78 661.18,255.61 "/>
<polygon class="st0" points="735.54,255.61 735.54,252.44 688.24,252.44 688.24,213.5 732.37,213.5 732.37,255.61 735.54,255.61 
	735.54,252.44 735.54,255.61 738.71,255.61 738.71,207.16 681.9,207.16 681.9,258.78 738.71,258.78 738.71,255.61 "/>
<polygon class="st0" points="84.06,347.39 84.06,344.22 33.84,344.22 33.84,305.28 80.89,305.28 80.89,347.39 84.06,347.39 
	84.06,344.22 84.06,347.39 87.23,347.39 87.23,298.94 27.5,298.94 27.5,350.56 87.23,350.56 87.23,347.39 "/>
<polygon class="st0" points="167,347.39 167,344.22 116.78,344.22 116.78,305.28 163.83,305.28 163.83,347.39 167,347.39 
	167,344.22 167,347.39 170.17,347.39 170.17,298.94 110.44,298.94 110.44,350.56 170.17,350.56 170.17,347.39 "/>
<polygon class="st0" points="246.73,347.39 246.73,344.22 196.51,344.22 196.51,305.28 243.56,305.28 243.56,347.39 246.73,347.39 
	246.73,344.22 246.73,347.39 249.9,347.39 249.9,298.94 190.17,298.94 190.17,350.56 249.9,350.56 249.9,347.39 "/>
<polyline class="st0" points="329.31,347.39 329.31,344.22 279.08,344.22 279.08,305.28 326.14,305.28 326.14,347.39 329.31,347.39 
	329.31,344.22 329.31,347.39 332.48,347.39 332.48,298.94 272.75,298.94 272.75,350.56 332.48,350.56 332.48,347.39 329.31,347.39 
	"/>
<polyline class="st0" points="409.75,347.39 409.75,344.22 359.53,344.22 359.53,305.28 406.58,305.28 406.58,347.39 409.75,347.39 
	409.75,344.22 409.75,347.39 412.92,347.39 412.92,298.94 353.19,298.94 353.19,350.56 412.92,350.56 412.92,347.39 409.75,347.39 
	"/>
<polygon class="st0" points="490.55,347.39 490.55,344.22 440.32,344.22 440.32,305.28 487.38,305.28 487.38,347.39 490.55,347.39 
	490.55,344.22 490.55,347.39 493.72,347.39 493.72,298.94 433.99,298.94 433.99,350.56 493.72,350.56 493.72,347.39 "/>
<polygon class="st0" points="570.99,347.39 570.99,344.22 520.77,344.22 520.77,305.28 567.82,305.28 567.82,347.39 570.99,347.39 
	570.99,344.22 570.99,347.39 574.16,347.39 574.16,298.94 514.43,298.94 514.43,350.56 574.16,350.56 574.16,347.39 "/>
<polygon class="st0" points="84.06,438.48 84.06,435.31 33.84,435.31 33.84,396.37 80.89,396.37 80.89,438.48 84.06,438.48 
	84.06,435.31 84.06,438.48 87.23,438.48 87.23,390.03 27.5,390.03 27.5,441.65 87.23,441.65 87.23,438.48 "/>
<polygon class="st0" points="167,438.48 167,435.31 116.78,435.31 116.78,396.37 163.83,396.37 163.83,438.48 167,438.48 
	167,435.31 167,438.48 170.17,438.48 170.17,390.03 110.44,390.03 110.44,441.65 170.17,441.65 170.17,438.48 "/>
<polygon class="st0" points="246.73,438.48 246.73,435.31 196.51,435.31 196.51,396.37 243.56,396.37 243.56,438.48 246.73,438.48 
	246.73,435.31 246.73,438.48 249.9,438.48 249.9,390.03 190.17,390.03 190.17,441.65 249.9,441.65 249.9,438.48 "/>
<polygon class="st0" points="329.31,438.48 329.31,435.31 279.08,435.31 279.08,396.37 326.14,396.37 326.14,438.48 329.31,438.48 
	329.31,435.31 329.31,438.48 332.48,438.48 332.48,390.03 272.75,390.03 272.75,441.65 332.48,441.65 332.48,438.48 "/>
<polygon class="st0" points="409.75,438.48 409.75,435.31 359.53,435.31 359.53,396.37 406.58,396.37 406.58,438.48 409.75,438.48 
	409.75,435.31 409.75,438.48 412.92,438.48 412.92,390.03 353.19,390.03 353.19,441.65 412.92,441.65 412.92,438.48 "/>
<polygon class="st0" points="490.55,438.48 490.55,435.31 440.32,435.31 440.32,396.37 487.38,396.37 487.38,438.48 490.55,438.48 
	490.55,435.31 490.55,438.48 493.72,438.48 493.72,390.03 433.99,390.03 433.99,441.65 493.72,441.65 493.72,438.48 "/>
<polygon class="st0" points="570.99,438.48 570.99,435.31 520.77,435.31 520.77,396.37 567.82,396.37 567.82,438.48 570.99,438.48 
	570.99,435.31 570.99,438.48 574.16,438.48 574.16,390.03 514.43,390.03 514.43,441.65 574.16,441.65 574.16,438.48 "/>
<polygon class="st0" points="658.01,347.39 658.01,344.22 607.79,344.22 607.79,305.28 654.85,305.28 654.85,347.39 658.01,347.39 
	658.01,344.22 658.01,347.39 661.18,347.39 661.18,298.94 601.46,298.94 601.46,350.56 661.18,350.56 661.18,347.39 "/>
<polygon class="st0" points="735.54,347.39 735.54,344.22 688.24,344.22 688.24,305.28 732.37,305.28 732.37,347.39 735.54,347.39 
	735.54,344.22 735.54,347.39 738.71,347.39 738.71,298.94 681.9,298.94 681.9,350.56 738.71,350.56 738.71,347.39 "/>
<polygon class="st0" points="658.01,438.48 658.01,435.31 607.79,435.31 607.79,396.37 654.85,396.37 654.85,438.48 658.01,438.48 
	658.01,435.31 658.01,438.48 661.18,438.48 661.18,390.03 601.46,390.03 601.46,441.65 661.18,441.65 661.18,438.48 "/>
<polygon class="st0" points="735.54,438.48 735.54,435.31 688.24,435.31 688.24,396.37 732.37,396.37 732.37,438.48 735.54,438.48 
	735.54,435.31 735.54,438.48 738.71,438.48 738.71,390.03 681.9,390.03 681.9,441.65 738.71,441.65 738.71,438.48 "/>
<polygon class="st0" points="84.06,162.8 84.06,159.63 33.84,159.63 33.84,120.68 80.89,120.68 80.89,162.8 84.06,162.8 
	84.06,159.63 84.06,162.8 87.23,162.8 87.23,114.34 27.5,114.34 27.5,165.97 87.23,165.97 87.23,162.8 "/>
<polygon class="st0" points="167,162.8 167,159.63 116.78,159.63 116.78,120.68 163.83,120.68 163.83,162.8 167,162.8 167,159.63 
	167,162.8 170.17,162.8 170.17,114.34 110.44,114.34 110.44,165.97 170.17,165.97 170.17,162.8 "/>
<polygon class="st0" points="246.73,162.8 246.73,159.63 196.51,159.63 196.51,120.68 243.56,120.68 243.56,162.8 246.73,162.8 
	246.73,159.63 246.73,162.8 249.9,162.8 249.9,114.34 190.17,114.34 190.17,165.97 249.9,165.97 249.9,162.8 "/>
<polygon class="st0" points="329.31,162.8 329.31,159.63 279.08,159.63 279.08,120.68 326.14,120.68 326.14,162.8 329.31,162.8 
	329.31,159.63 329.31,162.8 332.48,162.8 332.48,114.34 272.75,114.34 272.75,165.97 332.48,165.97 332.48,162.8 "/>
<polygon class="st0" points="409.75,162.8 409.75,159.63 359.53,159.63 359.53,120.68 406.58,120.68 406.58,162.8 409.75,162.8 
	409.75,159.63 409.75,162.8 412.92,162.8 412.92,114.34 353.19,114.34 353.19,165.97 412.92,165.97 412.92,162.8 "/>
<polygon class="st0" points="490.55,162.8 490.55,159.63 440.32,159.63 440.32,120.68 487.38,120.68 487.38,162.8 490.55,162.8 
	490.55,159.63 490.55,162.8 493.72,162.8 493.72,114.34 433.99,114.34 433.99,165.97 493.72,165.97 493.72,162.8 "/>
<polygon class="st0" points="570.99,162.8 570.99,159.63 520.77,159.63 520.77,120.68 567.82,120.68 567.82,162.8 570.99,162.8 
	570.99,159.63 570.99,162.8 574.16,162.8 574.16,114.34 514.43,114.34 514.43,165.97 574.16,165.97 574.16,162.8 "/>
<polygon class="st0" points="658.01,162.8 658.01,159.63 607.79,159.63 607.79,120.68 654.85,120.68 654.85,162.8 658.01,162.8 
	658.01,159.63 658.01,162.8 661.18,162.8 661.18,114.34 601.46,114.34 601.46,165.97 661.18,165.97 661.18,162.8 "/>
<polygon class="st0" points="735.54,162.8 735.54,159.63 688.24,159.63 688.24,120.68 732.37,120.68 732.37,162.8 735.54,162.8 
	735.54,159.63 735.54,162.8 738.71,162.8 738.71,114.34 681.9,114.34 681.9,165.97 738.71,165.97 738.71,162.8 "/>
<polygon class="st0" points="777.09,408.75 773.92,408.75 773.92,460.55 756.94,460.55 756.94,411.92 777.09,411.92 777.09,408.75 
	773.92,408.75 777.09,408.75 777.09,405.58 750.6,405.58 750.6,466.89 780.26,466.89 780.26,405.58 777.09,405.58 "/>
<polygon class="st0" points="803.02,408.75 799.85,408.75 799.85,460.55 780.26,460.55 780.26,411.92 803.02,411.92 803.02,408.75 
	799.85,408.75 803.02,408.75 803.02,405.58 773.92,405.58 773.92,466.89 806.19,466.89 806.19,405.58 803.02,405.58 "/>
<polygon class="st0" points="830.85,408.75 827.68,408.75 827.68,460.55 806.19,460.55 806.19,411.92 830.85,411.92 830.85,408.75 
	827.68,408.75 830.85,408.75 830.85,405.58 799.85,405.58 799.85,466.89 834.01,466.89 834.01,405.58 830.85,405.58 "/>
<polygon class="st0" points="856.77,408.75 853.6,408.75 853.6,460.55 834.01,460.55 834.01,411.92 856.77,411.92 856.77,408.75 
	853.6,408.75 856.77,408.75 856.77,405.58 827.68,405.58 827.68,466.89 859.94,466.89 859.94,405.58 856.77,405.58 "/>
<polygon class="st0" points="884.77,408.75 881.6,408.75 881.6,460.55 859.94,460.55 859.94,411.92 884.77,411.92 884.77,408.75 
	881.6,408.75 884.77,408.75 884.77,405.58 853.6,405.58 853.6,466.89 887.94,466.89 887.94,405.58 884.77,405.58 "/>
<polygon class="st0" points="910.7,408.75 907.53,408.75 907.53,460.55 887.94,460.55 887.94,411.92 910.7,411.92 910.7,408.75 
	907.53,408.75 910.7,408.75 910.7,405.58 881.6,405.58 881.6,466.89 913.87,466.89 913.87,405.58 910.7,405.58 "/>
<polygon class="st0" points="940.78,408.75 937.62,408.75 937.62,460.56 913.87,460.56 913.87,411.92 940.78,411.92 940.78,408.75 
	937.62,408.75 940.78,408.75 940.78,405.58 907.53,405.58 907.53,466.89 943.95,466.89 943.95,405.58 940.78,405.58 "/>
<polygon class="st0" points="995.04,408.75 991.87,408.75 991.87,460.56 969.88,460.56 969.88,411.92 995.04,411.92 995.04,408.75 
	991.87,408.75 995.04,408.75 995.04,405.58 963.54,405.58 963.54,466.89 998.21,466.89 998.21,405.58 995.04,405.58 "/>
<polygon class="st0" points="1047.94,408.75 1044.77,408.75 1044.77,460.55 1024.14,460.55 1024.14,411.92 1047.94,411.92 
	1047.94,408.75 1044.77,408.75 1047.94,408.75 1047.94,405.58 1017.8,405.58 1017.8,466.89 1051.11,466.89 1051.11,405.58 
	1047.94,405.58 "/>
<polygon class="st0" points="1102.2,408.75 1099.03,408.75 1099.03,460.55 1077.04,460.55 1077.04,411.92 1102.2,411.92 
	1102.2,408.75 1099.03,408.75 1102.2,408.75 1102.2,405.58 1070.7,405.58 1070.7,466.89 1105.37,466.89 1105.37,405.58 
	1102.2,405.58 "/>
<polygon class="st0" points="1151.47,408.75 1148.3,408.75 1148.3,460.55 1131.3,460.55 1131.3,411.92 1151.47,411.92 
	1151.47,408.75 1148.3,408.75 1151.47,408.75 1151.47,405.58 1124.96,405.58 1124.96,466.89 1154.64,466.89 1154.64,405.58 
	1151.47,405.58 "/>
<polygon class="st0" points="966.71,408.75 963.54,408.75 963.54,460.55 943.95,460.55 943.95,411.92 966.71,411.92 966.71,408.75 
	963.54,408.75 966.71,408.75 966.71,405.58 937.62,405.58 937.62,466.89 969.88,466.89 969.88,405.58 966.71,405.58 "/>
<polygon class="st0" points="1020.97,408.75 1017.8,408.75 1017.8,460.56 998.21,460.56 998.21,411.92 1020.97,411.92 
	1020.97,408.75 1017.8,408.75 1020.97,408.75 1020.97,405.58 991.87,405.58 991.87,466.89 1024.14,466.89 1024.14,405.58 
	1020.97,405.58 "/>
<polygon class="st0" points="1073.87,408.75 1070.7,408.75 1070.7,460.56 1051.11,460.56 1051.11,411.92 1073.87,411.92 
	1073.87,408.75 1070.7,408.75 1073.87,408.75 1073.87,405.58 1044.77,405.58 1044.77,466.89 1077.04,466.89 1077.04,405.58 
	1073.87,405.58 "/>
<polygon class="st0" points="1128.13,408.75 1124.96,408.75 1124.96,460.55 1105.37,460.55 1105.37,411.92 1128.13,411.92 
	1128.13,408.75 1124.96,408.75 1128.13,408.75 1128.13,405.58 1099.03,405.58 1099.03,466.89 1131.3,466.89 1131.3,405.58 
	1128.13,405.58 "/>
<path class="st0" d="M1896.07,53.05l-3.17,0.08c3.8,149.68,7.61,299.35,11.41,449.03l3.17-0.08l0.17-3.17
	c-292.15-15.23-598.79-23.93-918.75-23.93c-18.02,0-36.07,0.03-54.17,0.08c-321.24,0.98-629.11,10.7-922.44,26.95l0.18,3.16
	l3.17,0.03c1.33-150.6,2.64-301.21,3.97-451.81l-3.17-0.03l-0.12,3.17c74.52,2.92,149.01,5.49,223.52,7.72
	c168.71,5.04,337.42,8.3,506.13,9.75l0.03-3.17h-3.17v298.55h424.28V70.81h-3.17l0.03,3.17c173.92-1.55,347.81-4.99,521.7-10.36
	c70.19-2.14,140.38-4.61,210.54-7.39L1896.07,53.05l-3.17,0.08L1896.07,53.05l-0.13-3.17c-70.15,2.78-140.32,5.25-210.49,7.39
	c-173.85,5.37-347.69,8.81-521.56,10.36l-3.14,0.03v295.4h-411.6V67.71l-3.14-0.03c-168.67-1.45-337.33-4.71-506-9.74
	c-74.5-2.23-148.97-4.8-223.46-7.72l-3.26-0.13l-0.03,3.27c-1.33,150.6-2.64,301.21-3.97,451.81l-0.03,3.38l3.37-0.19
	c293.22-16.25,600.98-25.96,922.11-26.94c18.09-0.06,36.14-0.08,54.15-0.08c319.85,0,626.38,8.7,918.42,23.92l3.42,0.18l-0.09-3.42
	c-3.8-149.68-7.61-299.35-11.41-449.03l-0.08-3.21l-3.21,0.13L1896.07,53.05"/>
</svg>
